<svg width="1600" height="1100" viewBox="0 0 1600 1100" fill="none" xmlns="http://www.w3.org/2000/svg">
  <rect width="1600" height="1100" fill="#F5F8FF"/>
  <rect x="920" y="104" width="520" height="330" rx="20" fill="#FFFFFF" fill-opacity="0.72" stroke="#DDE7F6"/>
  <rect x="970" y="160" width="410" height="14" rx="7" fill="#E8EEF8"/>
  <rect x="970" y="208" width="300" height="14" rx="7" fill="#F0F4FA"/>
  <rect x="970" y="256" width="370" height="14" rx="7" fill="#F0F4FA"/>
  <circle cx="410" cy="-118" r="220" stroke="#DDE7F6" stroke-width="6" stroke-opacity="0.65"/>
  <rect x="1080" y="490" width="425" height="260" rx="20" fill="#FFFFFF" fill-opacity="0.72" stroke="#DDE7F6"/>
  <rect x="1125" y="550" width="160" height="135" rx="12" fill="#EAF2FF"/>
  <rect x="1315" y="550" width="150" height="135" rx="12" fill="#FFF6D8"/>
  <rect x="1125" y="718" width="310" height="13" rx="6.5" fill="#E8EEF8"/>
  <rect x="1125" y="756" width="238" height="13" rx="6.5" fill="#F0F4FA"/>
  <rect x="660" y="620" width="350" height="230" rx="20" fill="#FFFFFF" fill-opacity="0.72" stroke="#DDE7F6"/>
  <circle cx="745" cy="705" r="42" fill="#1F4F8F" fill-opacity="0.07"/>
  <rect x="820" y="674" width="170" height="13" rx="6.5" fill="#E8EEF8"/>
  <rect x="820" y="718" width="130" height="13" rx="6.5" fill="#F0F4FA"/>
  <rect x="155" y="730" width="365" height="150" rx="20" fill="#FFFFFF" fill-opacity="0.72" stroke="#DDE7F6"/>
  <rect x="205" y="785" width="88" height="62" rx="12" fill="#FFF6D8"/>
  <rect x="330" y="785" width="180" height="13" rx="6.5" fill="#E8EEF8"/>
  <rect x="330" y="830" width="120" height="13" rx="6.5" fill="#F0F4FA"/>
  <path d="M95 430C280 370 455 392 590 516C725 640 880 670 1030 565C1180 460 1305 422 1465 480" stroke="#F2D35F" stroke-width="5" stroke-linecap="round" stroke-opacity="0.35"/>
  <path d="M40 135C190 78 325 92 438 180C551 268 655 270 770 180C885 90 1025 55 1165 126" stroke="#DDE7F6" stroke-width="5" stroke-linecap="round"/>
</svg>
